<?xml version="1.0" encoding="UTF-8"?>
<svg width="146" height="24" version="1.1" xmlns="http://www.w3.org/2000/svg">
 <g fill-rule="evenodd">
  <path d="M40.014 16.809V8.553c0-1.577.366-2.82 1.098-3.73.733-.91 1.65-1.365 2.75-1.365 2.158 0 3.237 1.577 3.237 4.731v8.62h3.782v-9.58c0-2.415-.5-4.22-1.503-5.417C48.376.615 46.945.017 45.084.017c-1.222 0-2.34.234-3.352.703a6.833 6.833 0 00-2.56 2.043h-.066C38.126.932 36.486.017 34.184.017c-.969 0-1.902.217-2.799.653a6.976 6.976 0 00-2.353 1.878h-.05V.265H25.2v16.527h3.782V8.553c0-1.577.372-2.82 1.115-3.73.743-.91 1.693-1.365 2.849-1.365 2.19 0 3.286 1.577 3.286 4.731v8.62h3.782zm21.101.248c2.246 0 3.997-.827 5.252-2.482h.05v2.217h3.616V.265h-3.782V2.25h-.066C64.93.761 63.23.017 61.082.017a7.76 7.76 0 00-5.681 2.415c-.705.75-1.26 1.66-1.668 2.73a9.589 9.589 0 00-.611 3.44c0 1.258.203 2.416.61 3.475.408 1.059.964 1.952 1.669 2.68a7.348 7.348 0 002.535 1.696 8.325 8.325 0 003.18.604zm.595-3.441c-1.399 0-2.538-.466-3.419-1.398-.88-.932-1.321-2.132-1.321-3.599 0-1.555.454-2.804 1.362-3.747.909-.943 2.04-1.414 3.394-1.414 1.343 0 2.458.493 3.345 1.48.886.988 1.33 2.215 1.33 3.681 0 1.467-.455 2.667-1.363 3.599-.909.932-2.018 1.398-3.328 1.398zm27.112 3.193V7.064c0-2.393-.536-4.166-1.61-5.319C86.14.593 84.655.017 82.762.017a7.373 7.373 0 00-3.056.645 6.958 6.958 0 00-2.477 1.87h-.05V.264h-3.782v16.527h3.782V8.487c0-1.588.388-2.823 1.164-3.706.777-.882 1.814-1.323 3.113-1.323.595 0 1.104.077 1.528.231.424.155.796.406 1.115.753.32.348.556.819.71 1.415.154.595.231 1.323.231 2.183v8.769h3.782zm10.218.248c2.246 0 3.996-.827 5.252-2.482h.05v2.217h3.616V.265h-3.782V2.25h-.066C102.855.761 101.154.017 99.007.017a7.76 7.76 0 00-5.682 2.415c-.704.75-1.26 1.66-1.668 2.73a9.589 9.589 0 00-.61 3.44c0 1.258.203 2.416.61 3.475.408 1.059.964 1.952 1.668 2.68a7.348 7.348 0 002.536 1.696 8.325 8.325 0 003.179.604zm.594-3.441c-1.398 0-2.538-.466-3.418-1.398-.881-.932-1.322-2.132-1.322-3.599 0-1.555.455-2.804 1.363-3.747.908-.943 2.04-1.414 3.394-1.414 1.343 0 2.458.493 3.344 1.48.886.988 1.33 2.215 1.33 3.681 0 1.467-.455 2.667-1.363 3.599-.908.932-2.018 1.398-3.328 1.398zm19.07 10.125c1.2 0 2.274-.14 3.22-.422.947-.281 1.743-.673 2.387-1.175a6.385 6.385 0 001.602-1.844 8.14 8.14 0 00.916-2.383c.188-.86.281-1.803.281-2.829V.265h-3.782v1.737h-.066a7.059 7.059 0 00-2.353-1.49A7.62 7.62 0 00118.142 0c-1.508 0-2.862.358-4.062 1.075-1.2.717-2.134 1.713-2.8 2.987-.666 1.273-.999 2.705-.999 4.293 0 1.61.35 3.038 1.049 4.285.699 1.246 1.66 2.203 2.882 2.87 1.222.667 2.598 1.001 4.129 1.001 2.047 0 3.716-.673 5.004-2.018h.066v1.753c0 1.17-.43 2.14-1.288 2.912-.86.772-2.07 1.158-3.634 1.158-1.068 0-2.006-.132-2.816-.397-.809-.265-1.742-.678-2.799-1.24l-.892 3.341c.925.552 1.966.976 3.122 1.274 1.156.298 2.356.447 3.6.447zm.132-10.72c-1.365 0-2.491-.434-3.377-1.3-.887-.865-1.33-2.026-1.33-3.482 0-1.4.435-2.542 1.305-3.425.87-.882 2.004-1.323 3.402-1.323 1.332 0 2.442.435 3.328 1.307.886.871 1.33 2.002 1.33 3.391 0 1.401-.433 2.556-1.297 3.466-.864.91-1.985 1.365-3.361 1.365zm19.086 4.036c1.542 0 2.899-.281 4.071-.844 1.173-.562 2.133-1.323 2.882-2.283l-2.642-2.266c-1.035 1.301-2.406 1.952-4.113 1.952-1.21 0-2.237-.337-3.08-1.01-.842-.672-1.384-1.593-1.627-2.762h12.024c.066-.397.099-.9.099-1.506 0-1.599-.325-3.027-.975-4.285a7.198 7.198 0 00-2.807-2.961c-1.222-.717-2.632-1.075-4.228-1.075a8.191 8.191 0 00-3.188.62c-.99.414-1.844.99-2.56 1.729-.715.739-1.277 1.638-1.684 2.696-.407 1.06-.611 2.212-.611 3.458 0 1.688.369 3.185 1.106 4.492.738 1.307 1.746 2.308 3.023 3.003 1.277.695 2.714 1.042 4.31 1.042zm3.815-10.274h-8.257c.264-1.059.776-1.878 1.535-2.457.76-.579 1.663-.868 2.709-.868 1.057 0 1.93.298 2.618.893.688.596 1.153 1.406 1.395 2.432z" fill="#242D52" fill-rule="nonzero"/>
  <g fill="#F3603C">
   <path d="M2.786 10.286c1.538 0 2.785 1.279 2.785 2.857C5.571 14.72 4.324 16 2.786 16 1.247 16 0 14.72 0 13.143c0-1.578 1.247-2.857 2.786-2.857zM2.786 0C4.324 0 5.57 1.28 5.57 2.857c0 1.578-1.247 2.857-2.785 2.857C1.247 5.714 0 4.435 0 2.857 0 1.28 1.247 0 2.786 0zm10.028 0C14.353 0 15.6 1.28 15.6 2.857c0 1.578-1.247 2.857-2.786 2.857-1.538 0-2.785-1.279-2.785-2.857C10.029 1.28 11.276 0 12.814 0z"/>
   <ellipse cx="12.814" cy="13.257" rx="2.786" ry="2.857" opacity=".5"/>
  </g>
 </g>
 <path d="m25.276 8.5484v-8.2409h3.69v2.3474l0.70724-0.6908c1.4482-1.4145 3.534-2.1025 5.5108-1.8177 1.573 0.22662 2.7155 0.93851 3.6991 2.3049l0.25936 0.3603 0.62342-0.62343c2.531-2.531 7.0649-2.8464 9.2667-0.64454 0.69058 0.69058 1.1375 1.533 1.4875 2.8039 0.24258 0.88078 0.26255 1.312 0.30989 6.6917l0.0506 5.7502h-3.694l-0.044574-5.1352c-0.042379-4.8826-0.057743-5.1745-0.31228-5.9347-0.52595-1.5707-1.4339-2.2607-2.981-2.2654-0.79218-0.00239-1.0156 0.048265-1.5816 0.35862-1.0383 0.5693-1.7616 1.5631-2.1226 2.9164-0.08889 0.33319-0.16165 2.2854-0.1973 5.2941l-0.05648 4.7662h-3.5449l-0.0041-4.0897c-0.00627-6.1454-0.19266-7.423-1.2352-8.4655-0.83844-0.83844-2.3536-1.0651-3.6102-0.54006-0.58509 0.24447-1.4813 1.0707-1.8573 1.7124-0.59994 1.0237-0.66938 1.7208-0.67134 6.7396l-0.0018 4.6432h-3.69z" style="fill:#fff;stroke-width:.123"/>
 <path d="m60.024 16.956c-1.8687-0.29939-3.2537-0.99041-4.4957-2.243-1.5071-1.5199-2.1716-3.1463-2.295-5.617-0.18602-3.725 1.4506-6.7535 4.4537-8.2416 2.6406-1.3084 5.8774-0.95718 7.8949 0.85677 0.34549 0.31062 0.66154 0.56477 0.70234 0.56477 0.0408 0 0.07418-0.4428 0.07418-0.98399v-0.98399h3.567v16.482h-3.444v-1.107c0-0.60885-0.03261-1.107-0.07247-1.107s-0.31431 0.24884-0.6099 0.55297c-0.71613 0.73684-1.5458 1.2482-2.5073 1.5454-0.78465 0.2425-2.5585 0.39549-3.2678 0.28185zm3.2888-3.559c3.2413-1.1436 4.2029-5.7885 1.7607-8.5049-1.676-1.8642-4.6382-1.9827-6.5221-0.26092-2.5719 2.3505-2.0021 7.1532 1.0151 8.5569 1.1417 0.53118 2.602 0.61259 3.7463 0.20886z" style="fill:#fff;stroke-width:.123"/>
 <path d="m73.492 8.5484v-8.2409h3.69v2.2203l0.78635-0.66708c1.5006-1.273 3.3131-1.8804 5.2406-1.7563 1.3578 0.08743 2.144 0.3347 3.0985 0.97446 1.2555 0.84154 1.9981 2.1529 2.3144 4.0871 0.06637 0.4059 0.121 3.1872 0.1214 6.1807l7.12e-4 5.4427h-3.6758l-0.037827-5.3812-0.037827-5.3812-0.39236-0.82827c-0.31479-0.66453-0.50628-0.90051-0.9686-1.1937-1.0488-0.66511-2.4099-0.77082-3.8071-0.29566-0.85417 0.29048-1.8916 1.3435-2.2841 2.3185-0.29436 0.73116-0.29704 0.77742-0.33269 5.7493l-0.03594 5.0122h-3.6796z" style="fill:#fff;stroke-width:.123"/>
 <path d="m97.77 16.92c-2.3998-0.38177-4.5797-1.8917-5.613-3.888-0.74951-1.448-1.0033-2.5695-1.0007-4.4224 0.0026-1.8638 0.17952-2.6692 0.93202-4.2435 0.66625-1.3938 2.0558-2.8033 3.42-3.4692 2.7382-1.3366 5.9558-1.0228 7.9199 0.77227 0.36466 0.33328 0.69677 0.60596 0.73802 0.60596 0.0412 0 0.075-0.4428 0.075-0.98399v-0.98399h3.69v16.482h-3.567v-1.107c0-0.60885-0.0166-1.107-0.0369-1.107s-0.34793 0.30122-0.72803 0.66937c-0.74828 0.72476-1.6467 1.24-2.6175 1.501-0.79624 0.21411-2.4116 0.30193-3.2119 0.17463zm3.5567-3.581c1.7071-0.63974 2.8533-2.2653 3.0049-4.2618 0.26664-3.5102-2.3861-6.17-5.567-5.5819-1.5462 0.28583-2.6306 1.1168-3.3457 2.5637-0.46278 0.93638-0.46399 0.94286-0.46154 2.4827 3e-3 1.8773 0.23658 2.5945 1.1821 3.629 1.2735 1.3935 3.3429 1.8596 5.1872 1.1684z" style="fill:#fff;stroke-width:.123"/>
 <path d="m116.6 23.549c-1.6809-0.26046-4.4872-1.2811-4.491-1.6333-8.6e-4 -0.07967 0.175-0.81583 0.39082-1.6359l0.39239-1.4911 1.0282 0.4728c1.5809 0.72691 2.5304 0.9797 3.9711 1.0573 1.5209 0.08188 2.3846-0.06743 3.4396-0.59464 1.4734-0.73626 2.0954-1.9181 2.0954-3.9816 0-0.70959-0.033-1.2902-0.0734-1.2902s-0.32424 0.22082-0.63084 0.4907c-1.1244 0.98971-2.599 1.4773-4.4679 1.4773-3.7745 0-6.7244-2.2184-7.6232-5.7329-0.2957-1.1562-0.32344-3.2746-0.0592-4.5217 0.47027-2.2196 2.1059-4.3688 4.0289-5.2937 2.6537-1.2764 5.7521-1.0242 7.9614 0.64791 0.37025 0.28024 0.71619 0.50953 0.76875 0.50953 0.0525 0 0.0955-0.38745 0.0955-0.86099v-0.86099h3.69l-2.5e-4 7.0417c-3.7e-4 7.8756-0.0954 9.8146-0.55155 11.253-0.78964 2.4896-2.3338 3.9807-4.8812 4.7133-1.0365 0.2981-3.8368 0.42679-5.0834 0.23362zm3.2012-10.584c1.0258-0.18963 1.7676-0.60549 2.4901-1.3961 1.0366-1.1342 1.4608-2.7687 1.1407-4.3954-0.19373-0.98472-0.50316-1.5854-1.2009-2.3314-0.99656-1.0654-2.4443-1.5258-4.1519-1.3202-1.0801 0.13003-1.7754 0.45715-2.571 1.2097-0.86953 0.82236-1.3088 1.7865-1.3964 3.0648-0.18054 2.634 1.1788 4.608 3.5337 5.1316 0.87306 0.19412 1.2691 0.20092 2.1557 0.03703z" style="fill:#fff;stroke-width:.123"/>
 <path d="m136.48 16.901c-3.4255-0.5247-5.988-2.929-6.7221-6.3073-0.3154-1.4513-0.20556-3.7367 0.2431-5.0583 0.47553-1.4008 0.97417-2.2122 1.9684-3.203 1.5592-1.5538 3.1809-2.198 5.543-2.2019 2.4754-0.00407 4.0256 0.58883 5.6094 2.1454 1.5958 1.5684 2.324 3.5131 2.324 6.2063v1.2967h-6.027c-6.9356 0-6.3285-0.14375-5.594 1.3244 0.24254 0.4848 0.6553 1.0663 0.93849 1.3221 1.8677 1.6873 5.0617 1.622 6.9563-0.14232l0.5604-0.52188 1.2139 1.0511c0.66764 0.57812 1.2139 1.1093 1.2139 1.1804 0 0.14386-0.75058 0.88554-1.3767 1.3604-0.64576 0.48972-2.0582 1.1445-2.9283 1.3574-1.0309 0.25231-2.9204 0.34408-3.9229 0.19054zm5.2758-10.182c0-0.27848-0.39655-1.1797-0.73652-1.6738-0.48702-0.70786-1.2744-1.2439-2.1696-1.4771-0.90079-0.23463-1.4067-0.23378-2.3262 0.0039-1.397 0.36107-2.365 1.2397-2.8909 2.6238l-0.23964 0.63068h4.1815c2.3048 0 4.1815-0.048263 4.1815-0.10753z" style="fill:#fff;stroke-width:.123"/>
</svg>
